# xmcd CD database file
#
# Track frame offsets:
#	150
#	10648
#	26200
#	38433
#	50916
#	60856
#	70431
#	81764
#	93543
#	105319
#
# Disc length: 1548 seconds
#
# Revision: 0
# Processed by: cddbd v1.5.1PL0 Copyright (c) Steve Scherf et al.
# Submitted via: CDex 1.51
#
DISCID=75060a0a
DTITLE=Good Old Country - Ladies Of Country Volume 2
DYEAR=2000
DGENRE=Country
TTITLE0=Barbara Fairchild/Kid Stuff
TTITLE1=Lucy J. Dalton/Everybody Makes Mistakes
TTITLE2=Jeanne Pruett/Satin Sheets
TTITLE3=Wanda Jackson/Crazy
TTITLE4=Lynn Anderson/What A Man My Man Is
TTITLE5=Bonnie Guitar/A Woman In Love
TTITLE6=Kitty Wells/It Wasn't God Who Made Honkey Tonk Angels
TTITLE7=Donna Fargo/The Happiest Girl In The Whole U.S.A.
TTITLE8=Dolly Parton/Making Believe
TTITLE9=Melba Montgomery/Heartaches By The Number
EXTD=YEAR: 2000
EXTT0=
EXTT1=
EXTT2=
EXTT3=
EXTT4=
EXTT5=
EXTT6=
EXTT7=
EXTT8=
EXTT9=
PLAYORDER=
